# xmcd
#
# Track frame offsets:
#	150
#	13497
#	25555
#	37325
#	50559
#	62089
#	76155
#	91520
#	102218
#	112703
#	126098
#	142232
#	155051
#
# Disc length: 2220 seconds
#
# Revision: 1
# Processed by: cddbd v1.5.2PL0 Copyright (c) Steve Scherf et al.
# Submitted via: audiograbber 1.83.01
#
DISCID=a708aa0d
DTITLE=Vajá - Forró do Body
DYEAR=2008
DGENRE=Forró
TTITLE0=Amim
TTITLE1=Mainha
TTITLE2=Voltinha
TTITLE3=Body
TTITLE4=Caminhoneiro
TTITLE5=Beija-flor
TTITLE6=Minha Viola
TTITLE7=Amorzinho
TTITLE8=Fruta Misteriosa
TTITLE9=Saudade do Rio Grande
TTITLE10=Tonha
TTITLE11=Calçadão
TTITLE12=Celular
EXTD=
EXTT0=
EXTT1=
EXTT2=
EXTT3=
EXTT4=
EXTT5=
EXTT6=
EXTT7=
EXTT8=
EXTT9=
EXTT10=
EXTT11=
EXTT12=
PLAYORDER=
